<?xml version="1.0" encoding="UTF-8" standalone="no"?>
<!-- Created with Inkscape (http://www.inkscape.org/) -->

<svg
   xmlns:dc="http://purl.org/dc/elements/1.1/"
   xmlns:cc="http://creativecommons.org/ns#"
   xmlns:rdf="http://www.w3.org/1999/02/22-rdf-syntax-ns#"
   xmlns:svg="http://www.w3.org/2000/svg"
   xmlns="http://www.w3.org/2000/svg"
   xmlns:xlink="http://www.w3.org/1999/xlink"
   xmlns:sodipodi="http://sodipodi.sourceforge.net/DTD/sodipodi-0.dtd"
   xmlns:inkscape="http://www.inkscape.org/namespaces/inkscape"
   width="56.460419mm"
   height="59.409588mm"
   viewBox="0 0 56.460419 59.409588"
   version="1.1"
   id="svg5921"
   inkscape:version="0.92.2 5c3e80d, 2017-08-06"
   sodipodi:docname="lambcode-inkscape-mug.svg"
   inkscape:export-filename="/home/brian/pictures/lambcode_mug.png"
   inkscape:export-xdpi="269.77802"
   inkscape:export-ydpi="269.77802">
  <defs
     id="defs5915">
    <linearGradient
       inkscape:collect="always"
       xlink:href="#linearGradient4906"
       id="linearGradient4908"
       x1="-132.26384"
       y1="69.790504"
       x2="-130.26384"
       y2="69.790504"
       gradientUnits="userSpaceOnUse"
       gradientTransform="translate(162.37298,103.94707)" />
    <linearGradient
       inkscape:collect="always"
       id="linearGradient4906">
      <stop
         style="stop-color:#888888;stop-opacity:1"
         offset="0"
         id="stop4902" />
      <stop
         id="stop4910"
         offset="0.21342643"
         style="stop-color:#868686;stop-opacity:1" />
      <stop
         style="stop-color:#696969;stop-opacity:1"
         offset="0.21342643"
         id="stop4912" />
      <stop
         style="stop-color:#696969;stop-opacity:0.99545455"
         offset="1"
         id="stop4904" />
    </linearGradient>
  </defs>
  <sodipodi:namedview
     id="base"
     pagecolor="#ffffff"
     bordercolor="#666666"
     borderopacity="1.0"
     inkscape:pageopacity="0.0"
     inkscape:pageshadow="2"
     inkscape:zoom="1.4"
     inkscape:cx="92.197095"
     inkscape:cy="203.96446"
     inkscape:document-units="mm"
     inkscape:current-layer="layer1"
     showgrid="false"
     inkscape:window-width="952"
     inkscape:window-height="1041"
     inkscape:window-x="964"
     inkscape:window-y="18"
     inkscape:window-maximized="0" />
  <metadata
     id="metadata5918">
    <rdf:RDF>
      <cc:Work
         rdf:about="">
        <dc:format>image/svg+xml</dc:format>
        <dc:type
           rdf:resource="http://purl.org/dc/dcmitype/StillImage" />
        <dc:title></dc:title>
      </cc:Work>
    </rdf:RDF>
  </metadata>
  <g
     inkscape:label="Layer 1"
     inkscape:groupmode="layer"
     id="layer1"
     transform="translate(-17.126935,-126.68806)">
    <path
       style="color:#000000;font-style:normal;font-variant:normal;font-weight:normal;font-stretch:normal;font-size:medium;line-height:normal;font-family:sans-serif;font-variant-ligatures:normal;font-variant-position:normal;font-variant-caps:normal;font-variant-numeric:normal;font-variant-alternates:normal;font-feature-settings:normal;text-indent:0;text-align:start;text-decoration:none;text-decoration-line:none;text-decoration-style:solid;text-decoration-color:#000000;letter-spacing:normal;word-spacing:normal;text-transform:none;writing-mode:lr-tb;direction:ltr;text-orientation:mixed;dominant-baseline:auto;baseline-shift:baseline;text-anchor:start;white-space:normal;shape-padding:0;clip-rule:nonzero;display:inline;overflow:visible;visibility:visible;opacity:1;isolation:auto;mix-blend-mode:normal;color-interpolation:sRGB;color-interpolation-filters:linearRGB;solid-color:#000000;solid-opacity:1;vector-effect:none;fill:#372a1a;fill-opacity:1;fill-rule:nonzero;stroke:none;stroke-width:0.78099996;stroke-linecap:round;stroke-linejoin:round;stroke-miterlimit:4;stroke-dasharray:none;stroke-dashoffset:0;stroke-opacity:1;color-rendering:auto;image-rendering:auto;shape-rendering:auto;text-rendering:auto;enable-background:accumulate"
       d="m 46.773073,155.87093 -7.503216,6.7049 H 17.139958 l -0.0036,0.63769 h 21.898374 c 0.264262,3e-5 0.638296,-0.14274 0.835326,-0.31884 l 6.934102,-6.19634"
       id="rect5857"
       inkscape:connector-curvature="0"
       sodipodi:nodetypes="ccccccc" />
    <path
       style="color:#000000;font-style:normal;font-variant:normal;font-weight:normal;font-stretch:normal;font-size:medium;line-height:normal;font-family:sans-serif;font-variant-ligatures:normal;font-variant-position:normal;font-variant-caps:normal;font-variant-numeric:normal;font-variant-alternates:normal;font-feature-settings:normal;text-indent:0;text-align:start;text-decoration:none;text-decoration-line:none;text-decoration-style:solid;text-decoration-color:#000000;letter-spacing:normal;word-spacing:normal;text-transform:none;writing-mode:lr-tb;direction:ltr;text-orientation:mixed;dominant-baseline:auto;baseline-shift:baseline;text-anchor:start;white-space:normal;shape-padding:0;clip-rule:nonzero;display:inline;overflow:visible;visibility:visible;opacity:1;isolation:auto;mix-blend-mode:normal;color-interpolation:sRGB;color-interpolation-filters:linearRGB;solid-color:#000000;solid-opacity:1;vector-effect:none;fill:url(#linearGradient4908);fill-opacity:1;fill-rule:evenodd;stroke:none;stroke-width:2;stroke-linecap:butt;stroke-linejoin:miter;stroke-miterlimit:4;stroke-dasharray:none;stroke-dashoffset:0;stroke-opacity:1;color-rendering:auto;image-rendering:auto;shape-rendering:auto;text-rendering:auto;enable-background:accumulate"
       d="m 30.109306,162.5584 v 22.35742 h 2 V 162.5584 Z"
       id="path4888"
       inkscape:connector-curvature="0" />
    <rect
       transform="matrix(1,0,-0.74566097,0.66632553,0,0)"
       y="232.96811"
       x="199.198"
       height="11.020485"
       width="22.004635"
       id="rect4826"
       style="color:#000000;clip-rule:nonzero;display:inline;overflow:visible;visibility:visible;opacity:1;isolation:auto;mix-blend-mode:normal;color-interpolation:sRGB;color-interpolation-filters:linearRGB;solid-color:#000000;solid-opacity:1;fill:#84623d;fill-opacity:1;fill-rule:nonzero;stroke:#372a1a;stroke-width:0.22173557;stroke-linecap:round;stroke-linejoin:round;stroke-miterlimit:4;stroke-dasharray:none;stroke-dashoffset:0;stroke-opacity:1;color-rendering:auto;image-rendering:auto;shape-rendering:auto;text-rendering:auto;enable-background:accumulate" />
    <path
       style="color:#000000;clip-rule:nonzero;display:inline;overflow:visible;visibility:visible;opacity:1;isolation:auto;mix-blend-mode:normal;color-interpolation:sRGB;color-interpolation-filters:linearRGB;solid-color:#000000;solid-opacity:1;fill:#3d3d3d;fill-opacity:1;fill-rule:nonzero;stroke:#010101;stroke-width:0.10877699;stroke-linecap:round;stroke-linejoin:miter;stroke-miterlimit:4;stroke-dasharray:none;stroke-dashoffset:0;stroke-opacity:1;color-rendering:auto;image-rendering:auto;shape-rendering:auto;text-rendering:auto;enable-background:accumulate"
       d="m 23.320485,150.90596 v 0.60772 6.78253 l -1.922881,1.72754 h 3.96875 l 3.472138,-3.11867 h -3.969266 l -0.212908,0.1912 v -6.19032 z"
       id="rect4894"
       inkscape:connector-curvature="0" />
    <rect
       style="color:#000000;clip-rule:nonzero;display:inline;overflow:visible;visibility:visible;opacity:1;isolation:auto;mix-blend-mode:normal;color-interpolation:sRGB;color-interpolation-filters:linearRGB;solid-color:#000000;solid-opacity:1;fill:#b3b3b3;fill-opacity:1;fill-rule:nonzero;stroke:#3d3d3d;stroke-width:0.36698011;stroke-linecap:round;stroke-linejoin:miter;stroke-miterlimit:4;stroke-dasharray:none;stroke-dashoffset:0;stroke-opacity:1;color-rendering:auto;image-rendering:auto;shape-rendering:auto;text-rendering:auto;enable-background:accumulate"
       id="rect4828"
       width="7.2975793"
       height="8.5809851"
       x="206.01799"
       y="233.51369"
       transform="matrix(1,0,-0.74391118,0.6682785,0,0)"
       inkscape:transform-center-x="0.55050771"
       inkscape:transform-center-y="-2.09492" />
    <path
       style="color:#000000;font-style:normal;font-variant:normal;font-weight:normal;font-stretch:normal;font-size:medium;line-height:normal;font-family:sans-serif;font-variant-ligatures:normal;font-variant-position:normal;font-variant-caps:normal;font-variant-numeric:normal;font-variant-alternates:normal;font-feature-settings:normal;text-indent:0;text-align:start;text-decoration:none;text-decoration-line:none;text-decoration-style:solid;text-decoration-color:#000000;letter-spacing:normal;word-spacing:normal;text-transform:none;writing-mode:lr-tb;direction:ltr;text-orientation:mixed;dominant-baseline:auto;baseline-shift:baseline;text-anchor:start;white-space:normal;shape-padding:0;clip-rule:nonzero;display:inline;overflow:visible;visibility:visible;opacity:1;isolation:auto;mix-blend-mode:normal;color-interpolation:sRGB;color-interpolation-filters:linearRGB;solid-color:#000000;solid-opacity:1;vector-effect:none;fill:#3d3d3d;fill-opacity:1;fill-rule:nonzero;stroke:#000000;stroke-width:0.109;stroke-linecap:round;stroke-linejoin:round;stroke-miterlimit:4;stroke-dasharray:none;stroke-dashoffset:0;stroke-opacity:1;color-rendering:auto;image-rendering:auto;shape-rendering:auto;text-rendering:auto;enable-background:accumulate"
       d="m 20.691346,146.11055 a 0.16719916,0.37388046 24.09417 0 0 -0.21545,0.48178 v 12.47656 a 0.16719916,0.37388046 24.09417 0 0 0.21545,0.0963 l 6.513,-5.82567 a 0.16719916,0.37388046 24.09417 0 0 0.21544,-0.48177 v -12.47656 a 0.16719916,0.37388046 24.09417 0 0 -0.21544,-0.0964 z m 0.21545,0.38541 6.08064,-5.43894 v 11.89844 l -6.08064,5.43894 z"
       id="rect4922"
       inkscape:connector-curvature="0" />
    <path
       sodipodi:nodetypes="ccccccccccccccccccccccccccccccc"
       inkscape:connector-curvature="0"
       d="m 33.372946,156.43772 h 1.13148 3.73024 m -5.49787,0.57219 h 4.86172 m -5.39088,0.51263 h 4.86171 m -5.47356,0.52916 h 4.86172 m -5.54172,0.62839 h 4.89679 m -5.69321,0.71107 h 4.86172 m -5.59107,0.67799 h 4.84418 m -5.5819,0.61185 h 4.86172 m -5.49012,0.61185 h 4.86173 m 0,0 5.35696,-4.82908 m -6.4649,4.82908 5.38115,-4.85089 m -6.30719,4.85089 5.38948,-4.8584 m -6.24938,4.8584 5.39143,-4.86016 m -6.26786,4.86016 5.40922,-4.8762 m -6.50064,4.8762 5.40913,-4.8761"
       style="display:inline;fill:none;fill-rule:evenodd;stroke:#3d3d3d;stroke-width:0.2;stroke-linecap:butt;stroke-linejoin:miter;stroke-miterlimit:4;stroke-dasharray:none;stroke-opacity:1"
       id="path4830" />
    <path
       sodipodi:nodetypes="ccccc"
       inkscape:connector-curvature="0"
       id="path4880"
       d="m 60.645407,174.58629 c -1.58446,3.31847 -3.68477,8.40262 -4.06577,10.22023 -0.0708,0.6586 0.89526,1.06641 1.47674,0.41888 0.800809,-0.8702 3.066068,-10.42544 3.066068,-10.42544 z"
       style="display:inline;fill:#84623d;fill-opacity:1;fill-rule:evenodd;stroke:none;stroke-width:0.31750003px;stroke-linecap:butt;stroke-linejoin:miter;stroke-opacity:1" />
    <path
       sodipodi:nodetypes="sssssssss"
       inkscape:connector-curvature="0"
       id="path4834"
       d="m 56.613276,173.59303 c 3.76437,-0.4504 7.508637,-0.39305 11.237857,0 0.217479,0.0229 0.39474,0.17606 0.39474,0.39475 v 1.21507 c 0,0.21868 -0.17648,0.38109 -0.39474,0.39474 -3.74596,0.23425 -7.491907,0.25787 -11.237857,0 -0.21817,-0.015 -0.39474,-0.17606 -0.39474,-0.39474 v -1.21507 c 0,-0.21869 0.177602,-0.36877 0.39474,-0.39475 z"
       style="color:#000000;clip-rule:nonzero;display:inline;overflow:visible;visibility:visible;opacity:1;isolation:auto;mix-blend-mode:normal;color-interpolation:sRGB;color-interpolation-filters:linearRGB;solid-color:#000000;solid-opacity:1;fill:#84623d;fill-opacity:1;fill-rule:nonzero;stroke:none;stroke-width:0.39474392;stroke-linecap:round;stroke-linejoin:miter;stroke-miterlimit:4;stroke-dasharray:none;stroke-dashoffset:0;stroke-opacity:1;color-rendering:auto;image-rendering:auto;shape-rendering:auto;text-rendering:auto;enable-background:accumulate" />
    <path
       inkscape:connector-curvature="0"
       id="path4836"
       d="m 43.963396,130.63132 c 0,0 -2.27814,-4.16338 -3.70229,-2.30963 -1.42415,1.85376 -0.80101,2.86715 -0.10907,3.28313 0.69195,0.41599 3.81136,-0.9735 3.81136,-0.9735 z"
       style="display:inline;fill:#ffbc96;fill-opacity:1;fill-rule:evenodd;stroke:#ffcfb5;stroke-width:0.5;stroke-linecap:butt;stroke-linejoin:miter;stroke-miterlimit:4;stroke-dasharray:none;stroke-opacity:1" />
    <path
       style="display:inline;fill:#84623d;fill-opacity:1;fill-rule:evenodd;stroke:none;stroke-width:0.31750003px;stroke-linecap:butt;stroke-linejoin:miter;stroke-opacity:1"
       d="m 63.452594,174.61412 c 1.64696,3.28791 3.843099,8.3314 4.258429,10.14147 0.0832,0.65715 -0.874922,1.08317 -1.468552,0.44675 -0.817139,-0.85489 -3.262799,-10.36555 -3.262799,-10.36555 z"
       id="path4882"
       inkscape:connector-curvature="0"
       sodipodi:nodetypes="ccccc" />
    <g
       style="display:inline;stroke-width:0.5;stroke-miterlimit:4;stroke-dasharray:none"
       transform="translate(25.570466,85.985411)"
       id="g4850">
      <g
         style="stroke-width:0.29578215;stroke-miterlimit:4;stroke-dasharray:none"
         transform="matrix(0.21326528,-1.6769265,1.6769265,0.21326528,-86.683668,90.31783)"
         id="g4842">
        <path
           style="color:#000000;clip-rule:nonzero;display:inline;overflow:visible;visibility:visible;opacity:1;isolation:auto;mix-blend-mode:normal;color-interpolation:sRGB;color-interpolation-filters:linearRGB;solid-color:#000000;solid-opacity:1;fill:#ffbc96;fill-opacity:1;fill-rule:nonzero;stroke:#ffbc96;stroke-width:0.29578215;stroke-linecap:round;stroke-linejoin:miter;stroke-miterlimit:4;stroke-dasharray:none;stroke-dashoffset:0;stroke-opacity:1;color-rendering:auto;image-rendering:auto;shape-rendering:auto;text-rendering:auto;enable-background:accumulate"
           d="M 4.6875727,66.751224 21.057832,67.0288 v 1.46607 L 4.6875727,68.772446 Z"
           id="path4838"
           inkscape:connector-curvature="0"
           sodipodi:nodetypes="ccccc" />
        <path
           id="path4840"
           d="M 4.6590358,66.779761 H 3.0686033 v 1.964148 h 1.5904325 z"
           style="color:#000000;clip-rule:nonzero;display:inline;overflow:visible;visibility:visible;opacity:1;isolation:auto;mix-blend-mode:normal;color-interpolation:sRGB;color-interpolation-filters:linearRGB;solid-color:#000000;solid-opacity:1;fill:#3d3d3d;fill-opacity:1;fill-rule:nonzero;stroke:#3d3d3d;stroke-width:0.29578215;stroke-linecap:round;stroke-linejoin:miter;stroke-miterlimit:4;stroke-dasharray:none;stroke-dashoffset:0;stroke-opacity:1;color-rendering:auto;image-rendering:auto;shape-rendering:auto;text-rendering:auto;enable-background:accumulate"
           inkscape:connector-curvature="0" />
      </g>
      <g
         style="stroke-width:0.29578218;stroke-miterlimit:4;stroke-dasharray:none"
         id="g4848"
         transform="matrix(0.51721766,-1.6093633,1.6093633,0.51721766,-88.384707,67.165775)">
        <path
           sodipodi:nodetypes="ccccc"
           inkscape:connector-curvature="0"
           id="path4844"
           d="M 4.6875727,66.751224 21.057832,67.0288 v 1.46607 L 4.6875727,68.772446 Z"
           style="color:#000000;clip-rule:nonzero;display:inline;overflow:visible;visibility:visible;opacity:1;isolation:auto;mix-blend-mode:normal;color-interpolation:sRGB;color-interpolation-filters:linearRGB;solid-color:#000000;solid-opacity:1;fill:#ffbc96;fill-opacity:1;fill-rule:nonzero;stroke:#ffbc96;stroke-width:0.29578218;stroke-linecap:round;stroke-linejoin:miter;stroke-miterlimit:4;stroke-dasharray:none;stroke-dashoffset:0;stroke-opacity:1;color-rendering:auto;image-rendering:auto;shape-rendering:auto;text-rendering:auto;enable-background:accumulate" />
        <path
           inkscape:connector-curvature="0"
           style="color:#000000;clip-rule:nonzero;display:inline;overflow:visible;visibility:visible;opacity:1;isolation:auto;mix-blend-mode:normal;color-interpolation:sRGB;color-interpolation-filters:linearRGB;solid-color:#000000;solid-opacity:1;fill:#3d3d3d;fill-opacity:1;fill-rule:nonzero;stroke:#3d3d3d;stroke-width:0.29578218;stroke-linecap:round;stroke-linejoin:miter;stroke-miterlimit:4;stroke-dasharray:none;stroke-dashoffset:0;stroke-opacity:1;color-rendering:auto;image-rendering:auto;shape-rendering:auto;text-rendering:auto;enable-background:accumulate"
           d="M 4.6590358,66.779761 H 3.0686033 v 1.964148 h 1.5904325 z"
           id="path4846" />
      </g>
    </g>
    <g
       style="display:inline;stroke-width:0.29578218;stroke-miterlimit:4;stroke-dasharray:none"
       id="g4856"
       transform="matrix(-0.30858924,-1.662028,1.662028,-0.30858924,-62.952021,192.85099)"
       inkscape:transform-center-x="-0.26279372"
       inkscape:transform-center-y="-0.39772986">
      <path
         sodipodi:nodetypes="ccccc"
         inkscape:connector-curvature="0"
         id="path4852"
         d="M 4.6875727,66.751224 21.057832,67.0288 v 1.46607 L 4.6875727,68.772446 Z"
         style="color:#000000;clip-rule:nonzero;display:inline;overflow:visible;visibility:visible;opacity:1;isolation:auto;mix-blend-mode:normal;color-interpolation:sRGB;color-interpolation-filters:linearRGB;solid-color:#000000;solid-opacity:1;fill:#ffbc96;fill-opacity:1;fill-rule:nonzero;stroke:#ffbc96;stroke-width:0.29578218;stroke-linecap:round;stroke-linejoin:miter;stroke-miterlimit:4;stroke-dasharray:none;stroke-dashoffset:0;stroke-opacity:1;color-rendering:auto;image-rendering:auto;shape-rendering:auto;text-rendering:auto;enable-background:accumulate" />
      <path
         inkscape:connector-curvature="0"
         style="color:#000000;clip-rule:nonzero;display:inline;overflow:visible;visibility:visible;opacity:1;isolation:auto;mix-blend-mode:normal;color-interpolation:sRGB;color-interpolation-filters:linearRGB;solid-color:#000000;solid-opacity:1;fill:#3d3d3d;fill-opacity:1;fill-rule:nonzero;stroke:#3d3d3d;stroke-width:0.29578218;stroke-linecap:round;stroke-linejoin:miter;stroke-miterlimit:4;stroke-dasharray:none;stroke-dashoffset:0;stroke-opacity:1;color-rendering:auto;image-rendering:auto;shape-rendering:auto;text-rendering:auto;enable-background:accumulate"
         d="M 4.6590358,66.779761 H 3.0686033 v 1.964148 h 1.5904325 z"
         id="path4854" />
    </g>
    <rect
       transform="matrix(0.74534034,-0.66668416,0,1,0,0)"
       y="165.09764"
       x="27.894072"
       height="12.095957"
       width="8.4715385"
       id="rect4892"
       style="color:#000000;clip-rule:nonzero;display:inline;overflow:visible;visibility:visible;opacity:1;isolation:auto;mix-blend-mode:normal;color-interpolation:sRGB;color-interpolation-filters:linearRGB;solid-color:#000000;solid-opacity:1;fill:#808080;fill-opacity:1;fill-rule:nonzero;stroke:none;stroke-width:0.56150556;stroke-linecap:round;stroke-linejoin:round;stroke-miterlimit:4;stroke-dasharray:none;stroke-dashoffset:0;stroke-opacity:1;color-rendering:auto;image-rendering:auto;shape-rendering:auto;text-rendering:auto;enable-background:accumulate" />
    <rect
       style="color:#000000;clip-rule:nonzero;display:inline;overflow:visible;visibility:visible;opacity:1;isolation:auto;mix-blend-mode:normal;color-interpolation:sRGB;color-interpolation-filters:linearRGB;solid-color:#000000;solid-opacity:1;fill:#ececec;fill-opacity:1;fill-rule:nonzero;stroke:#666666;stroke-width:0.51599997;stroke-linecap:round;stroke-linejoin:round;stroke-miterlimit:4;stroke-dasharray:none;stroke-dashoffset:0;stroke-opacity:1;color-rendering:auto;image-rendering:auto;shape-rendering:auto;text-rendering:auto;enable-background:accumulate"
       id="rect7340"
       width="4.7263417"
       height="6.6047587"
       x="26.116898"
       y="148.88936" />
    <g
       style="display:inline;stroke-width:0.29578215;stroke-miterlimit:4;stroke-dasharray:none"
       transform="matrix(1.5925446,0.56689167,-0.56689167,1.5925446,64.636929,41.931639)"
       id="g4862">
      <path
         style="color:#000000;clip-rule:nonzero;display:inline;overflow:visible;visibility:visible;opacity:1;isolation:auto;mix-blend-mode:normal;color-interpolation:sRGB;color-interpolation-filters:linearRGB;solid-color:#000000;solid-opacity:1;fill:#ffbc96;fill-opacity:1;fill-rule:nonzero;stroke:#ffbc96;stroke-width:0.29578215;stroke-linecap:round;stroke-linejoin:miter;stroke-miterlimit:4;stroke-dasharray:none;stroke-dashoffset:0;stroke-opacity:1;color-rendering:auto;image-rendering:auto;shape-rendering:auto;text-rendering:auto;enable-background:accumulate"
         d="M 4.6875727,66.751224 21.057832,67.0288 v 1.46607 L 4.6875727,68.772446 Z"
         id="path4858"
         inkscape:connector-curvature="0"
         sodipodi:nodetypes="ccccc" />
      <path
         id="path4860"
         d="M 4.6590358,66.779761 H 3.0686033 v 1.964148 h 1.5904325 z"
         style="color:#000000;clip-rule:nonzero;display:inline;overflow:visible;visibility:visible;opacity:1;isolation:auto;mix-blend-mode:normal;color-interpolation:sRGB;color-interpolation-filters:linearRGB;solid-color:#000000;solid-opacity:1;fill:#3d3d3d;fill-opacity:1;fill-rule:nonzero;stroke:#3d3d3d;stroke-width:0.29578215;stroke-linecap:round;stroke-linejoin:miter;stroke-miterlimit:4;stroke-dasharray:none;stroke-dashoffset:0;stroke-opacity:1;color-rendering:auto;image-rendering:auto;shape-rendering:auto;text-rendering:auto;enable-background:accumulate"
         inkscape:connector-curvature="0" />
    </g>
    <path
       style="color:#000000;clip-rule:nonzero;display:inline;overflow:visible;visibility:visible;opacity:1;isolation:auto;mix-blend-mode:normal;color-interpolation:sRGB;color-interpolation-filters:linearRGB;solid-color:#000000;solid-opacity:1;fill:#ececec;fill-opacity:1;fill-rule:nonzero;stroke:#666666;stroke-width:0.30500001;stroke-linecap:round;stroke-linejoin:round;stroke-miterlimit:4;stroke-dasharray:none;stroke-dashoffset:0;stroke-opacity:1;color-rendering:auto;image-rendering:auto;shape-rendering:auto;text-rendering:auto;enable-background:accumulate"
       d="m 30.052337,149.80583 v 0.88378 h 1.783456 v 3.12751 h -1.783456 v 0.92685 h 2.709978 v -4.93814 z"
       id="rect7342"
       inkscape:connector-curvature="0" />
    <path
       sodipodi:nodetypes="ccccc"
       inkscape:connector-curvature="0"
       id="path4884"
       d="m 62.105947,174.33198 c 0.561985,3.63414 1.109675,9.1077 0.951267,10.95804 -0.121841,0.65109 -1.164368,0.76353 -1.534809,-0.024 -0.516379,-1.0639 0.0652,-10.86675 0.0652,-10.86675 z"
       style="display:inline;fill:#84623d;fill-opacity:1;fill-rule:evenodd;stroke:none;stroke-width:0.31750003px;stroke-linecap:butt;stroke-linejoin:miter;stroke-opacity:1" />
    <path
       sodipodi:nodetypes="ccccccccccccccccccccccccccccccccccccc"
       inkscape:connector-curvature="0"
       id="path4864"
       d="m 56.120336,135.96686 c -1.874988,0.002 -3.575061,1.1018 -4.34548,2.81119 -0.22036,-0.0382 -0.443489,-0.0583 -0.667139,-0.0599 -2.234461,0.001 -4.053832,1.79651 -4.084499,4.03077 -0.0873,-0.008 -0.174893,-0.0132 -0.262523,-0.0145 -2.022229,-1e-4 -3.661649,1.8295 -3.661789,4.08657 10e-4,0.34979 0.0421,0.69801 0.12247,1.03611 -0.90536,0.63288 -1.44353,1.65458 -1.44539,2.74402 10e-4,0.9703 0.42832,1.89326 1.17254,2.53369 -0.45571,0.67498 -0.69936,1.47072 -0.6997,2.28514 10e-4,1.52231 0.84871,2.91769 2.198832,3.62096 -0.263951,0.49187 -0.401842,1.03037 -0.403591,1.57614 0.0021,1.50492 1.03051,2.8558 2.594161,3.40547 -0.18329,0.41573 -0.278313,0.86496 -0.279062,1.3193 -2.01e-4,1.81361 1.469919,3.28396 3.28353,3.28404 0.0567,-5.3e-4 0.1134,-0.003 0.17001,-0.006 0.31105,1.98792 2.02278,3.45368 4.034891,3.45508 0.2458,-5.3e-4 0.491051,-0.0231 0.732779,-0.0677 0.703221,1.35191 2.100191,2.2003 3.62407,2.2009 0.85145,-0.002 1.68107,-0.2696 2.372981,-0.76584 0.772909,0.84738 1.866316,1.33098 3.013245,1.33273 1.808911,-10e-4 3.401959,-1.19107 3.91604,-2.9254 2.019141,-0.28007 3.523157,-2.00522 3.525366,-4.04368 -7.94e-4,-0.52327 -0.102317,-1.0415 -0.298688,-1.52652 0.431146,-0.56891 0.665168,-1.26281 0.666626,-1.97663 -7.94e-4,-0.0996 -0.0062,-0.19907 -0.01603,-0.29817 1.212159,-0.74191 1.95186,-2.06026 1.953368,-3.48144 -0.0011,-0.94461 -0.329475,-1.85965 -0.929142,-2.58951 0.536453,-0.60064 0.833466,-1.37748 0.834575,-2.18281 -7.94e-4,-0.84073 -0.323792,-1.64919 -0.902785,-2.25878 0.282091,-0.61831 0.428855,-1.28976 0.430464,-1.96939 -2.62e-4,-1.58153 -0.784127,-3.06018 -2.092891,-3.94808 0.0267,-0.19855 0.0408,-0.39859 0.0424,-0.59893 -0.0021,-2.32302 -1.676971,-4.30692 -3.966691,-4.69893 -0.176628,-2.11699 -1.945688,-3.74567 -4.07003,-3.74706 -0.733436,0.002 -1.452946,0.20034 -2.083075,0.57567 -0.686099,-1.88303 -2.475691,-3.13672 -4.47983,-3.13831 z"
       style="color:#000000;clip-rule:nonzero;display:inline;overflow:visible;visibility:visible;opacity:1;isolation:auto;mix-blend-mode:normal;color-interpolation:sRGB;color-interpolation-filters:linearRGB;solid-color:#000000;solid-opacity:1;fill:#dddddd;fill-opacity:1;fill-rule:nonzero;stroke:#e6e6e6;stroke-width:0.5;stroke-linecap:round;stroke-linejoin:miter;stroke-miterlimit:4;stroke-dasharray:none;stroke-dashoffset:0;stroke-opacity:1;color-rendering:auto;image-rendering:auto;shape-rendering:auto;text-rendering:auto;enable-background:accumulate" />
    <path
       inkscape:connector-curvature="0"
       id="path4866"
       d="m 69.388844,165.74026 a 2.3830244,2.3830244 0 0 0 -3.088,-1.35079 2.3830244,2.3830244 0 0 0 -1.210622,1.0598 2.3830244,2.3830244 0 0 0 -1.750309,-0.009 2.3830244,2.3830244 0 0 0 -1.350317,3.08781 2.3830244,2.3830244 0 0 0 0.10105,0.2185 2.3830244,2.3830244 0 0 0 -0.631209,2.64378 2.3830244,2.3830244 0 0 0 2.812127,1.43712 2.3830244,2.3830244 0 0 0 2.350548,0.35697 2.3830244,2.3830244 0 0 0 1.274392,-1.18187 2.3830244,2.3830244 0 0 0 0.373049,-0.10883 2.3830244,2.3830244 0 0 0 1.35051,-3.08733 2.3830244,2.3830244 0 0 0 -0.52116,-0.7999 2.3830244,2.3830244 0 0 0 0.289941,-2.26661 z"
       style="color:#000000;clip-rule:nonzero;display:inline;overflow:visible;visibility:visible;opacity:1;isolation:auto;mix-blend-mode:normal;color-interpolation:sRGB;color-interpolation-filters:linearRGB;solid-color:#000000;solid-opacity:1;fill:#dddddd;fill-opacity:1;fill-rule:nonzero;stroke:#e6e6e6;stroke-width:0.5;stroke-linecap:round;stroke-linejoin:miter;stroke-miterlimit:4;stroke-dasharray:none;stroke-dashoffset:0;stroke-opacity:1;color-rendering:auto;image-rendering:auto;shape-rendering:auto;text-rendering:auto;enable-background:accumulate" />
    <path
       sodipodi:nodetypes="ssszs"
       inkscape:connector-curvature="0"
       id="path4868"
       d="m 46.619387,143.98968 c -4.667221,3.22037 -10.057761,3.50199 -12.040111,0.629 -1.98236,-2.87298 0.19416,-7.81262 4.86138,-11.03299 4.667232,-3.22037 7.99542,-6.49092 12.040121,-0.629 4.04471,5.86191 -0.194162,7.81262 -4.86139,11.03299 z"
       style="color:#000000;clip-rule:nonzero;display:inline;overflow:visible;visibility:visible;opacity:1;isolation:auto;mix-blend-mode:normal;color-interpolation:sRGB;color-interpolation-filters:linearRGB;solid-color:#000000;solid-opacity:1;fill:#ffbc96;fill-opacity:1;fill-rule:nonzero;stroke:#ffbc96;stroke-width:0.5;stroke-linecap:round;stroke-linejoin:miter;stroke-miterlimit:4;stroke-dasharray:none;stroke-dashoffset:0;stroke-opacity:1;color-rendering:auto;image-rendering:auto;shape-rendering:auto;text-rendering:auto;enable-background:accumulate" />
    <circle
       r="0.94379562"
       cy="135.64008"
       cx="40.714268"
       id="circle4870"
       style="color:#000000;clip-rule:nonzero;display:inline;overflow:visible;visibility:visible;opacity:1;isolation:auto;mix-blend-mode:normal;color-interpolation:sRGB;color-interpolation-filters:linearRGB;solid-color:#000000;solid-opacity:1;fill:#000000;fill-opacity:1;fill-rule:nonzero;stroke:none;stroke-width:0.69753087;stroke-linecap:round;stroke-linejoin:miter;stroke-miterlimit:4;stroke-dasharray:none;stroke-dashoffset:0;stroke-opacity:1;color-rendering:auto;image-rendering:auto;shape-rendering:auto;text-rendering:auto;enable-background:accumulate" />
    <path
       sodipodi:nodetypes="cc"
       inkscape:connector-curvature="0"
       id="path4872"
       d="m 34.840326,144.85028 c 0,0 3.31674,0.35199 4.15537,-3.19153"
       style="display:inline;fill:none;fill-rule:evenodd;stroke:#000000;stroke-width:0.5;stroke-linecap:round;stroke-linejoin:miter;stroke-miterlimit:4;stroke-dasharray:none;stroke-opacity:1" />
    <path
       inkscape:transform-center-y="0.29814288"
       inkscape:transform-center-x="-0.41253489"
       sodipodi:nodetypes="zzz"
       inkscape:connector-curvature="0"
       id="path4874"
       d="m 33.663466,140.08902 c -1.2146,0.59893 -0.34048,2.57942 0.39994,2.23288 0.74042,-0.34655 0.81467,-2.83182 -0.39994,-2.23288 z"
       style="display:inline;fill:#000000;fill-rule:evenodd;stroke:none;stroke-width:0.77455723;stroke-linecap:butt;stroke-linejoin:miter;stroke-miterlimit:4;stroke-dasharray:none;stroke-opacity:1" />
    <path
       inkscape:connector-curvature="0"
       id="path4876"
       d="m 53.345008,137.14353 c 0,0 -2.929311,3.77976 0.566959,5.66964 3.496279,1.88988 -0.566959,-5.66964 -0.566959,-5.66964 z"
       style="display:inline;fill:#ffbc96;fill-opacity:1;fill-rule:evenodd;stroke:#ffcfb5;stroke-width:0.5;stroke-linecap:butt;stroke-linejoin:miter;stroke-miterlimit:4;stroke-dasharray:none;stroke-opacity:1" />
    <path
       sodipodi:nodetypes="ccccccccccccccccccccccccccccc"
       inkscape:connector-curvature="0"
       id="path4878"
       d="m 52.937018,127.84114 c -0.469041,-0.21322 -0.989301,-0.2551 -1.431611,-0.11532 -0.194421,-0.21969 -0.442121,-0.40138 -0.720251,-0.5283 -0.673439,-0.3069 -1.43047,-0.25235 -1.9147,0.13783 -0.108759,-0.0763 -0.22506,-0.14314 -0.346778,-0.19922 -0.838962,-0.38192 -1.776773,-0.19473 -2.183191,0.43577 -0.821741,-0.21329 -1.613652,0.0844 -1.90255,0.71513 -0.138642,0.30463 -0.14546,0.65839 -0.01929,1.00318 -0.50876,0.0758 -0.913099,0.35727 -1.09899,0.76505 -0.338029,0.74138 0.129021,1.68036 1.043239,2.09739 0.0347,0.0158 0.0699,0.0307 0.105363,0.0447 0.119189,0.50921 0.513638,0.9735 1.053518,1.24006 -0.11116,0.69 0.360132,1.43216 1.134422,1.78641 0.147579,0.0672 0.301768,0.11816 0.458499,0.15142 0.053,0.59871 0.500229,1.17105 1.14559,1.46617 0.565978,0.25719 1.199079,0.26236 1.67893,0.0135 0.1833,0.18924 0.407019,0.34646 0.654629,0.46008 0.600131,0.27323 1.273061,0.26188 1.759,-0.0298 0.1943,0.21932 0.44173,0.40073 0.71949,0.52749 0.914471,0.41699 1.929871,0.15384 2.26786,-0.58774 0.029,-0.0649 0.0522,-0.13243 0.0693,-0.20188 0.557382,-0.0487 1.008772,-0.33837 1.20931,-0.77611 0.240171,-0.52788 0.0765,-1.18048 -0.417959,-1.66778 0.25445,-0.13777 0.448842,-0.3408 0.561872,-0.58685 0.3381,-0.74153 -0.129202,-1.6807 -1.04371,-2.0976 -0.116081,-0.0522 -0.236212,-0.0946 -0.358492,-0.12612 0.18202,-0.71317 -0.291608,-1.51982 -1.112729,-1.89512 -0.0698,-0.0311 -0.14101,-0.0587 -0.213342,-0.0825 0.221152,-0.72282 -0.252007,-1.5636 -1.097388,-1.94996 z"
       style="color:#000000;clip-rule:nonzero;display:inline;overflow:visible;visibility:visible;opacity:1;isolation:auto;mix-blend-mode:normal;color-interpolation:sRGB;color-interpolation-filters:linearRGB;solid-color:#000000;solid-opacity:1;fill:#dddddd;fill-opacity:1;fill-rule:nonzero;stroke:#e6e6e6;stroke-width:0.5;stroke-linecap:round;stroke-linejoin:miter;stroke-miterlimit:4;stroke-dasharray:none;stroke-dashoffset:0;stroke-opacity:1;color-rendering:auto;image-rendering:auto;shape-rendering:auto;text-rendering:auto;enable-background:accumulate" />
    <path
       inkscape:connector-curvature="0"
       id="path4886"
       d="m 57.197346,180.77206 c 4.776531,1.05038 9.579287,-0.0897 9.579287,-0.0897 0,0 -4.907748,-0.73013 -9.579287,0.0897 z"
       style="display:inline;fill:#84623d;fill-opacity:1;fill-rule:evenodd;stroke:#84623d;stroke-width:1.12111068;stroke-linecap:butt;stroke-linejoin:round;stroke-miterlimit:4;stroke-dasharray:none;stroke-opacity:1" />
    <path
       sodipodi:nodetypes="ccsc"
       inkscape:connector-curvature="0"
       id="path4890"
       d="m 36.344066,185.72122 h -10.29295 c 0,-1.23622 2.30416,-2.23837 5.14648,-2.23837 2.84231,0 5.14646,1.00215 5.14647,2.23837 z"
       style="color:#000000;clip-rule:nonzero;display:inline;overflow:visible;visibility:visible;opacity:1;isolation:auto;mix-blend-mode:normal;color-interpolation:sRGB;color-interpolation-filters:linearRGB;solid-color:#000000;solid-opacity:1;fill:#696969;fill-opacity:0.99607843;fill-rule:nonzero;stroke:none;stroke-width:0.74363029;stroke-linecap:round;stroke-linejoin:round;stroke-miterlimit:4;stroke-dasharray:none;stroke-dashoffset:0;stroke-opacity:1;color-rendering:auto;image-rendering:auto;shape-rendering:auto;text-rendering:auto;enable-background:accumulate" />
    <path
       style="color:#000000;clip-rule:nonzero;display:inline;overflow:visible;visibility:visible;opacity:1;isolation:auto;mix-blend-mode:normal;color-interpolation:sRGB;color-interpolation-filters:linearRGB;solid-color:#000000;solid-opacity:1;fill:#878787;fill-opacity:1;fill-rule:nonzero;stroke:none;stroke-width:0.74363029;stroke-linecap:round;stroke-linejoin:round;stroke-miterlimit:4;stroke-dasharray:none;stroke-dashoffset:0;stroke-opacity:1;color-rendering:auto;image-rendering:auto;shape-rendering:auto;text-rendering:auto;enable-background:accumulate"
       d="m 30.548983,183.50242 c -2.535393,0.13901 -4.497916,1.07855 -4.497916,2.21899 h 1.38286 c 0.41378,-0.5641 1.296612,-1.42797 3.115056,-2.21899 z"
       id="path4926"
       inkscape:connector-curvature="0" />
  </g>
</svg>
